<svg xmlns="http://www.w3.org/2000/svg" viewBox="0 0 24 24"><path fill="#ffffff" d="M17.06 13C15.2 13 13.64 14.33 13.24 16.1C12.29 15.69 11.42 15.8 10.76 16.09C10.36 14.32 8.8 13 6.94 13C4.77 13 3 14.79 3 17C3 19.21 4.77 21 6.94 21C9 21 10.68 19.38 10.84 17.32C11.18 17.08 12.07 16.63 13.16 17.34C13.34 19.39 15 21 17.06 21C19.23 21 21 19.21 21 17C21 14.79 19.23 13 17.06 13M6.94 19.86C5.38 19.86 4.13 18.58 4.13 17C4.13 15.42 5.39 14.14 6.94 14.14C8.5 14.14 9.75 15.42 9.75 17C9.75 18.58 8.5 19.86 6.94 19.86M17.06 19.86C15.5 19.86 14.25 18.58 14.25 17C14.25 15.42 15.5 14.14 17.06 14.14C18.61 14.14 19.87 15.42 19.87 17C19.87 18.58 18.61 19.86 17.06 19.86M22 10.5H2V12H22V10.5M15.53 2.63C15.17 2.27 14.59 2.27 14.23 2.63L13.18 3.68C12.82 4.04 12.82 4.62 13.18 4.98L14.23 6.03C14.59 6.39 15.17 6.39 15.53 6.03L16.58 4.98C16.94 4.62 16.94 4.04 16.58 3.68L15.53 2.63M10.82 2.63C10.46 2.27 9.88 2.27 9.53 2.63L8.47 3.68C8.11 4.04 8.11 4.62 8.47 4.98L9.53 6.03C9.88 6.39 10.46 6.39 10.82 6.03L11.87 4.98C12.24 4.62 12.24 4.04 11.87 3.68L10.82 2.63M12 9C13.11 9 14 8.11 14 7H10C10 8.11 10.9 9 12 9Z"/></svg>